<?xml version="1.0" encoding="utf-8"?>
<!-- Generator: Adobe Illustrator 19.2.1, SVG Export Plug-In . SVG Version: 6.00 Build 0)  -->
<!DOCTYPE svg PUBLIC "-//W3C//DTD SVG 1.1//EN" "http://www.w3.org/Graphics/SVG/1.1/DTD/svg11.dtd">
<svg version="1.1" id="Layer_1" xmlns="http://www.w3.org/2000/svg" xmlns:xlink="http://www.w3.org/1999/xlink" x="0px" y="0px"
	 viewBox="0 0 400 114.6" enable-background="new 0 0 400 114.6" xml:space="preserve">
<g>
	<g>
		<path fill="#3A3835" d="M0.8,43.3c-0.1-1.1-0.1-2.1,0.1-3.2c0.2-1,0.4-2.1,0.4-3.3c0.1-1.1,0-2.1-0.2-3.2c-0.2-1-0.4-2.1-0.5-3.2
			c-0.1-0.8-0.1-1.6-0.2-2.4c-0.1-0.8-0.1-1.5,0-2.3c0.1-0.7,0.2-1.3,0.3-1.9c0.2-0.6,0.3-1.2,0.4-1.9c0.2-1.3,0.2-2.6,0.1-4
			C1.1,16.7,1,15.4,1,14c0-1.4,0.2-2.6,0.6-3.9C2,8.9,2.8,7.8,4,6.9c0.8-0.6,1.6-1.1,2.6-1.4s2-0.6,3.1-0.7s2.1-0.3,3.2-0.3
			s2.1-0.1,3-0.1c1.4-0.1,2.7,0.1,3.8,0.6c1.2,0.5,2.1,1.4,2.8,2.7c0.4,0.7,0.6,1.4,0.6,2c0,0.7,0,1.3-0.1,1.9
			c-0.1,0.6-0.2,1.3-0.4,1.9c-0.2,0.6-0.2,1.3-0.2,2.1c0,0.7,0,1.5,0,2.4c0,0.9,0.1,1.7,0.2,2.5c0.1,0.7,0,1.6,0,2.8
			c-0.1,1.2-0.2,2.4-0.2,3.7c-0.1,1.3,0,2.5,0.2,3.5s0.7,1.7,1.4,2c0.6,0.3,1.3,0.3,2,0.1c0.7-0.3,1.4-0.6,2.2-1.1
			c0.7-0.5,1.4-1,1.9-1.6c0.6-0.6,1-1.2,1.4-1.7c0.5-0.7,0.7-1.6,0.7-2.8c0-1.2,0-2.2,0-3.1c0-2,0.1-4.1,0.3-6.2
			c0.2-2.1,0.3-4.2,0.3-6.3c0-0.6,0.1-1.3,0.2-2.1c0.1-0.8,0.4-1.6,0.7-2.4c0.3-0.8,0.8-1.4,1.3-2c0.5-0.6,1.1-1,1.9-1.1
			C37.5,2,38.1,2,38.7,2.3c0.6,0.2,1.2,0.3,1.8,0.3c0.7,0,1.3,0,1.8-0.1c0.5-0.1,1.1-0.2,1.7-0.4c1.3-0.4,2.9-0.7,4.6-0.7
			c0.8,0,1.6,0.2,2.5,0.7c1.6,0.9,2.8,2.1,3.5,3.7c0.7,1.6,1.2,3.3,1.4,5c0.3,2,0.4,4.1,0.6,6.2c0.1,2.1,0.2,4.2,0.2,6.2
			c0,1.6-0.2,3.2-0.5,4.6c-0.3,1.4-0.5,3-0.7,4.6c-0.1,1.5-0.1,2.9,0,4.2c0.1,1.4,0.1,2.8,0.1,4.2c0,3.7,0.2,7.3,0.6,11
			c0.4,3.7,0.8,7.4,1.3,11c0.1,1.1,0.3,2.1,0.4,3.2c0.2,1,0.2,2.1,0.2,3.3c0,1,0,2.2-0.1,3.5c-0.1,1.3-0.3,2.4-0.6,3.3
			c-0.4,1.1-1,1.9-1.8,2.6c-0.9,0.7-1.5,1.5-2,2.4c-0.5,0.9-0.6,2.1-0.4,3.5c0.3,1.4,0.4,2.6,0.5,3.7c0.1,0.7,0.1,1.4,0.1,2
			c0,0.7,0,1.3-0.1,2c-0.1,0.7-0.2,1.3-0.5,1.9c-0.3,0.6-0.4,1.1-0.6,1.7c-0.2,0.9-0.4,1.7-0.6,2.6c-0.2,0.8-0.3,1.7-0.2,2.6
			c0.1,0.7,0.2,1.4,0.3,2c0.1,0.6,0.2,1.3,0.2,2c0,0.5,0,1.1,0.1,1.7c0.1,0.6,0.2,1.2,0.3,1.8c0.1,0.6,0.1,1.2,0,1.8
			c-0.1,0.6-0.2,1.1-0.5,1.6c-0.3,0.4-0.7,0.7-1.2,0.9c-0.6,0.3-1.1,0.3-1.6,0.2c-0.6-0.2-1-0.5-1-1c0-0.5,0-1.1,0-1.8
			c0-1.3-0.1-2.6-0.3-3.9c-0.2-1.3-0.3-2.6-0.3-3.9c0-0.9,0-1.7,0.1-2.5c0.1-0.8,0.1-1.6,0-2.4c-0.1-0.9-0.2-1.9-0.5-2.8
			c-0.3-0.9-0.5-1.9-0.6-2.9c-0.1-1.1-0.2-2.2-0.2-3.4c0-1.2-0.4-2.2-1.1-3c-0.3-0.4-0.6-0.8-1-1.1c-0.3-0.4-0.6-0.8-0.9-1.2
			c-0.4-0.8-0.6-1.6-0.5-2.6c0.1-0.9-0.1-1.8-0.7-2.6c-0.5-0.6-1.2-0.9-2-1.1c-0.8-0.2-1.6-0.3-2.3-0.5c-1-0.1-1.9-0.4-2.7-0.8
			c-0.8-0.4-1.4-1.1-1.9-2c-0.8-1.6-1.1-3.2-0.8-5c0.3-1.7,0.5-3.4,0.7-5.1c0.1-1.5,0.1-3.1,0-4.6c-0.1-1.6-0.4-3.1-0.8-4.5
			c-0.1-0.5-0.2-0.9-0.2-1.1c0-0.2-0.4-0.4-1-0.5c-0.7-0.2-1.1-0.2-1.3,0.1c-0.2,0.3-0.4,0.5-0.7,0.9c-0.8,0.6-1.4,0.9-1.8,0.9
			c-0.5,0.1-1.2,0-2.3-0.1c-1.1-0.1-1.8,0-2.2,0.4c-0.4,0.4-0.7,0.9-0.8,1.6c-0.1,0.7-0.1,1.4,0,2.2c0.1,0.8,0.1,1.5,0,2.2
			c-0.2,2.1-0.4,4.1-0.7,6.2c-0.3,2-0.3,4.1-0.2,6.2c0.1,0.9,0.1,1.9,0.2,2.8s0,1.9-0.1,3c-0.3,1.6-0.7,3-1.2,4.4
			c-0.5,1.3-0.8,2.8-0.9,4.4c-0.1,1.8-0.2,3.5-0.3,5.3c-0.1,1.7,0,3.5,0.1,5.3c0.1,1.3,0,2.4-0.2,3.3c-0.2,0.9-1,1.4-2.4,1.5
			c-0.8,0-1.3-0.2-1.7-0.5c-0.4-0.3-0.6-0.7-0.8-1.2c-0.1-0.5-0.2-1.1-0.2-1.7c0-0.6,0.1-1.3,0.2-1.9c0.1-1.1,0.3-2.3,0.5-3.5
			c0.2-1.2,0.1-2.4-0.2-3.6c-0.1-0.6-0.4-1.3-0.7-2.2c-0.3-0.9-0.8-1.8-1.3-2.6c-0.5-0.9-1.1-1.6-1.7-2.3c-0.6-0.7-1.2-1.1-1.8-1.2
			c-0.9-0.2-1.7-0.3-2.6-0.4c-0.8-0.1-1.6-0.2-2.3-0.4c-0.7-0.2-1.3-0.6-1.9-1c-0.6-0.5-1-1.2-1.4-2.2c-0.5-1.5-0.8-3-0.8-4.6
			c0-1.6,0-3.2,0-4.8c0-1.3,0.1-2.6,0.3-4s0.3-2.6,0.3-3.9c0-1.5-0.2-2.9-0.5-4.3c-0.3-1.4-0.3-2.9,0-4.3c0.3-1.6,0.5-3.1,0.6-4.6
			S0.9,44.9,0.8,43.3z"/>
		<path fill="#3A3835" d="M61.1,34.6c-0.4-2-0.5-4-0.3-6.2c0.2-2.1,0.2-4.2,0.2-6.2c0-1.5,0.1-2.9,0.2-4.3c0.1-1.4,0.2-2.9,0.2-4.3
			c0-1.2,0-2.4,0-3.7s0.3-2.5,0.8-3.5c0.4-0.8,0.8-1.2,1.2-1.4c0.4-0.2,0.9-0.2,1.4,0c0.5,0.2,1,0.4,1.5,0.7c0.5,0.3,1,0.5,1.6,0.7
			c2,0.6,3.8,0.9,5.7,0.7c1.5-0.1,2.9-0.4,4.1-0.9c0.6-0.3,1.1-0.5,1.6-0.8c0.5-0.3,1.1-0.5,1.8-0.5c0.9-0.1,1.4,0.1,1.6,0.5
			c0.2,0.4,0.5,0.8,1,1.3c0.4,0.4,0.8,0.7,1.1,1c0.4,0.3,0.7,0.6,1,0.9c0.3,0.3,0.5,0.7,0.7,1.1c0.2,0.4,0.2,1,0.1,1.7
			c-0.1,0.6-0.2,1.1-0.5,1.7c-0.3,0.6-0.4,1.2-0.4,1.8c0,0.7,0.1,1.3,0.3,1.8c0.2,0.5,0.4,1,0.6,1.6c0.4,1.3,0.7,2.6,0.9,4
			c0.1,1.4,0.2,2.8,0.2,4.1c0,1.3-0.2,2.5-0.5,3.6c-0.3,1.1-0.5,2.3-0.6,3.6c-0.1,1.3,0,2.5,0.3,3.6c0.3,1.1,0.7,2.2,1.1,3.4
			c0.4,1.1,0.7,2.3,0.8,3.5c0.1,1.2,0.1,2.4,0,3.6c-0.1,2.5-0.3,5-0.5,7.5c-0.2,2.5,0,4.9,0.7,7.3c0.5,1.6,1,3.1,1.6,4.5
			c0.5,1.5,0.6,3,0.2,4.7c-0.3,1.6-0.9,2.5-1.7,2.7c-0.8,0.3-1.7,0.3-2.6,0c-0.9-0.2-1.9-0.5-2.9-0.8c-1-0.3-1.9-0.2-2.6,0.1
			c-0.9,0.4-1.5,1.1-1.9,1.9c-0.4,0.8-0.7,1.7-0.9,2.7c-0.2,0.9-0.3,1.9-0.4,2.9c-0.1,1-0.2,1.9-0.4,2.7c-0.4,2-0.4,4.1-0.1,6.1
			c0.3,2.1,0.5,4.1,0.5,6.1c0,0.3,0,0.8,0,1.7s0,1.8-0.1,2.7c-0.1,0.9-0.3,1.6-0.6,2.2c-0.3,0.6-0.8,0.7-1.4,0.4
			c-0.5-0.3-0.8-0.9-0.8-1.6c0-0.8-0.1-1.4-0.2-1.9c-0.1-0.5-0.3-1-0.6-1.4c-0.3-0.4-0.4-0.9-0.6-1.4c-0.1-0.6-0.2-1.2-0.1-1.8
			c0-0.6,0-1.2,0-1.8c0-1.3-0.1-2.4-0.3-3.6c-0.2-1.1-0.5-2.3-0.7-3.5c-0.1-0.7-0.3-1.3-0.5-1.9c-0.2-0.6-0.3-1.2-0.3-1.9
			c0-0.7,0-1.3,0.1-1.9c0.1-0.6,0.1-1.2,0-1.8c-0.1-0.4-0.1-0.8,0-1.2c0-0.4,0-0.9,0-1.3c0-0.4-0.1-0.9-0.2-1.3
			c-0.1-0.4-0.3-0.8-0.7-1.1c-0.2-0.2-0.5-0.4-0.9-0.5c-0.4-0.2-0.9-0.3-1.4-0.4c-0.5-0.1-1-0.2-1.5-0.3c-0.5-0.1-0.9-0.1-1.1-0.1
			c-0.3,0-0.7,0.1-1.1,0.4c-0.4,0.3-0.7,0.3-1,0.2c-0.6-0.3-1.1-0.9-1.4-1.9c-0.3-1-0.5-1.8-0.5-2.4v-0.2c-0.1-0.9-0.2-1.8-0.1-2.7
			c0.1-0.9,0.1-1.8,0.2-2.7c0.1-0.9,0.2-1.8,0.2-2.7c0-0.9,0-1.8-0.1-2.7c-0.3-1.3-0.5-2.6-0.8-3.9c-0.3-1.3-0.4-2.6-0.4-3.9
			c0-2.6,0.2-5.2,0.5-7.7C61.7,39.8,61.6,37.2,61.1,34.6z"/>
		<path fill="#3A3835" d="M94.2,37.7c-0.1-3.2-0.1-6.5-0.2-9.8c-0.1-3.3,0.2-6.5,0.7-9.7c0.2-1.1,0.3-2.3,0.2-3.4
			c-0.1-1.1-0.1-2.2-0.1-3.3s0-2.2,0-3.3C94.8,7.2,95,6.1,95.5,5c0.4-1.1,1.1-1.9,2-2.3s1.9-0.6,3-0.5s2.2,0.2,3.3,0.4
			c1.1,0.3,2.1,0.4,3,0.6c1.6,0.2,3.2,0.2,4.7,0.1c1.6-0.1,3.2-0.2,4.7-0.3c1.6-0.1,3.2-0.2,4.7-0.3c1.6-0.1,3.2,0.1,4.7,0.4
			c2.7,0.5,5.1,1.4,7.5,2.8c2.3,1.4,4.5,2.9,6.5,4.6c1.6,1.3,2.8,2.7,3.5,4.4c0.8,1.6,1.6,3.3,2.5,5c0.8,1.5,1.5,3,2.2,4.3
			c0.6,1.4,0.9,3,0.9,4.8c0,0.5,0,1.1,0,1.8c0,0.7-0.1,1.3-0.2,1.9c-0.5,2.3-1.4,4.4-2.6,6.2c-1.2,1.9-2.8,3.5-4.7,4.7
			c-1.1,0.7-2.1,1.5-2.9,2.4c-0.9,0.9-1.8,1.8-2.7,2.7c-0.9,0.9-1.9,1.8-2.8,2.6c-1,0.8-2.1,1.4-3.3,1.9c-1.2,0.5-2.4,0.7-3.5,0.7
			c-1.2-0.1-2.4-0.3-3.5-0.8c-0.6-0.2-1.1-0.4-1.6-0.6c-0.5-0.2-1-0.3-1.5-0.3c-0.5,0-0.9,0.1-1.2,0.4c-0.3,0.3-0.6,0.8-0.8,1.7
			c-0.3,1.5-0.3,3.1,0,4.7c0.3,1.6,0.6,3.2,0.7,4.8c0.1,1.6,0,3.2-0.3,4.7c-0.3,1.6-0.4,3.2-0.4,4.9c0,0.6,0.1,1.2,0.2,2
			c0.2,0.8,0.3,1.6,0.4,2.4c0.1,0.8,0.1,1.6,0,2.3c-0.1,0.7-0.4,1.3-0.8,1.7c-0.9,0.8-1.6,0.9-2.2,0.6c-0.6-0.4-1.2-0.9-1.8-1.5
			c-0.8-0.9-1.5-1.5-2.1-1.8c-0.6-0.3-1.5-0.2-2.7,0.3c-0.5,0.2-0.9,0.5-1,1c-0.2,0.5-0.3,1-0.3,1.6c0,0.6,0,1.2,0,1.8
			c0.1,0.6,0.1,1.1,0,1.5c-0.1,0.7-0.1,1.3,0,1.9c0.1,0.6,0.1,1.2,0.1,1.9c0,0.9-0.1,1.7-0.4,2.6s-0.5,1.7-0.6,2.6
			c-0.2,1.4-0.4,2.8-0.7,4.1c-0.3,1.3-0.7,2.6-1.2,3.9c-0.1,0.4-0.2,0.8-0.2,1.3c0,0.5-0.1,1-0.1,1.6c-0.1,0.5-0.1,1-0.2,1.5
			c-0.1,0.5-0.2,0.8-0.4,1.1c-0.3,0.4-0.6,0.6-0.9,0.5c-0.3,0-0.5-0.2-0.8-0.4c-0.3-0.3-0.4-0.6-0.6-0.9c-0.1-0.4-0.2-0.7-0.2-1
			c0-2.3,0-4.6,0-6.9c0-2.2,0-4.5,0-6.9c0-1.3,0-2.7,0.1-4c0.1-1.4,0-2.7-0.2-4c-0.2-1.3-0.6-2.6-1.1-3.7c-0.5-1.2-1.4-2.2-2.5-3.1
			c-1.3-1-2.4-2.1-3.1-3.2c-0.8-1.1-1.2-2.6-1.4-4.3c-0.1-0.3-0.1-0.6-0.1-1c0-0.3,0-0.7,0-1.1c0-1.5,0.1-2.9,0.4-4.4
			c0.3-1.5,0.5-3,0.6-4.4c0.3-3.5,0.5-7.1,0.5-10.6C94.2,44.8,94.2,41.3,94.2,37.7z M117.8,27c-0.1,0.5-0.3,1.1-0.4,1.8
			c-0.2,0.7-0.1,1.3,0.2,1.8c0.5,0.8,1.2,1.2,2,1.2c0.9,0,1.6,0.1,2.3,0.2c0.5,0.1,1,0.3,1.5,0.4c0.5,0.1,0.9-0.2,1.3-0.9
			c0.4-0.7,0.5-1.7,0.3-2.9c-0.2-1.2-0.5-2.2-0.9-2.9c-0.2-0.3-0.5-0.6-0.9-0.9c-0.4-0.3-0.9-0.7-1.3-0.9c-0.5-0.3-0.9-0.5-1.4-0.6
			c-0.5-0.1-0.9-0.1-1.3,0c-0.8,0.3-1.2,0.8-1.2,1.6C118,25.6,117.9,26.3,117.8,27z"/>
		<path fill="#3A3835" d="M186.3,19.1c0-0.8,0-1.6,0-2.6s0-2,0.1-3c0.1-1,0.2-2,0.3-3c0.2-0.9,0.4-1.8,0.8-2.5
			c1.1-2,2.6-3.5,4.5-4.6c1.9-1.1,3.9-2,6.1-2.5c2.2-0.5,4.4-0.8,6.7-0.9c2.3-0.1,4.5-0.1,6.6,0c0.9,0.1,1.9,0.2,3,0.5
			c1,0.3,2.1,0.6,3,1c1,0.4,1.9,0.9,2.8,1.3c0.9,0.5,1.7,0.9,2.5,1.4c0.9,0.5,1.7,1,2.6,1.4c0.8,0.4,1.5,0.9,2.2,1.5
			c0.5,0.4,0.9,0.8,1.3,1.2c0.3,0.4,0.7,0.8,1.2,1.2c0.5,0.3,1,0.5,1.6,0.7c0.5,0.1,1,0.3,1.5,0.7c0.4,0.3,0.9,0.7,1.2,1.2
			c0.4,0.6,0.7,1.1,0.9,1.6c0.6,1.1,0.7,2.2,0.3,3.5c-0.2,0.6-0.4,1.1-0.8,1.6c-0.3,0.5-0.7,1-1,1.5c-0.4,0.5-0.7,1-1.1,1.5
			c-0.3,0.5-0.6,1.1-0.7,1.7c-0.3,1.1-0.4,2.1-0.4,3.2s-0.2,2.1-0.5,3.2c-0.1,0.4-0.4,0.7-0.7,1.1c-0.3,0.3-0.8,0.4-1.4,0.2
			c-0.4-0.2-0.7-0.5-0.9-1c-0.1-0.5-0.3-0.9-0.5-1.3c-0.3-0.7-0.5-1.1-0.6-1.3c-0.2-0.2-0.6-0.3-1.3-0.5c-0.5-0.2-0.9-0.4-1.1-0.6
			c-0.3-0.2-0.5-0.5-0.7-0.9c-0.6-1.1-1.3-2.1-2.1-3.2c-0.8-1-1.7-2-2.7-2.7c-1-0.8-2.1-1.4-3.3-1.8c-1.2-0.4-2.5-0.5-3.8-0.3
			c-1.3,0.2-2.1,0.7-2.5,1.4c-0.4,0.8-0.2,1.7,0.7,2.7c0.7,1,1.7,1.8,3,2.3c1.3,0.5,2.5,1,3.6,1.5c1.4,0.5,2.6,1.2,3.6,1.9
			c0.9,0.8,2,1.7,3,2.6c1.2,1.1,2.4,2.2,3.6,3.3c1.2,1.1,2.2,2.4,3.1,3.7c0.4,0.5,0.8,1.1,1.1,1.7c0.3,0.6,0.6,1.2,0.9,1.8
			c0.4,0.9,0.9,1.8,1.2,2.8c0.4,1,0.8,1.9,1.3,2.8c0.6,1.3,1.3,2.5,2.1,3.6c0.8,1.1,1.1,2.4,1.1,4c0,1.3-0.2,2.4-0.6,3.5
			c-0.4,1.1-0.8,2.2-1.1,3.3c-0.3,1.3-0.7,2.5-1.2,3.6c-0.5,1.1-1,2.2-1.5,3.3c-0.5,0.9-1,1.9-1.4,3c-0.4,1-1,2-1.7,2.9
			c-0.7,0.9-1.3,2-1.9,3c-0.6,1.1-1.2,2.1-1.9,3c-0.8,1.3-1.2,2.4-1.5,3.3s-0.5,2.1-0.8,3.6c-0.1,0.3-0.1,0.8-0.2,1.5
			c-0.1,0.7-0.3,1.1-0.6,1.3c-0.4,0.2-0.7,0.2-0.9,0.1c-0.3-0.1-0.5-0.3-0.6-0.5s-0.3-0.5-0.4-0.9c-0.1-0.3-0.2-0.6-0.3-0.8
			c-0.2-0.6-0.3-1.1-0.3-1.7c0-0.5-0.2-1.1-0.5-1.6c-0.4-0.5-0.8-0.8-1.2-0.9c-0.4-0.1-0.9,0-1.4,0.1c-0.5,0.2-0.9,0.5-1.3,0.9
			c-0.4,0.4-0.7,0.8-0.9,1.2c-0.5,0.9-0.8,1.8-0.9,2.8c-0.1,1-0.3,2-0.6,2.9c-0.3,1-0.7,1.8-1.1,2.5c-0.4,0.6-0.8,1.4-1.3,2.3
			c-0.4,0.9-0.6,1.8-0.6,2.8c0.1,1,0.1,1.9,0.2,2.9c0.2,1.9,0.1,3.8-0.3,5.9c-0.1,0.4-0.3,0.9-0.6,1.4c-0.3,0.5-0.7,0.7-1.4,0.6
			c-0.6-0.1-1-0.4-1.1-0.9c-0.1-0.5-0.2-1-0.3-1.5c-0.2-1.1-0.2-2.3,0-3.5c0.2-1.2,0.4-2.4,0.4-3.6c0.1-1.2,0-2.4-0.1-3.6
			c-0.2-1.2-0.3-2.4-0.4-3.5c0-0.3,0-0.7,0-1.3c0-0.6-0.1-1.4-0.1-2.2c-0.1-0.8-0.1-1.7-0.2-2.5c-0.1-0.9-0.2-1.7-0.4-2.4
			c-0.5-1.6-1.2-2.4-2.1-2.3c-0.3,0.1-0.5,0.3-0.7,0.5c-0.1,0.2-0.3,0.5-0.4,0.7c-0.2,0.3-0.3,0.5-0.6,0.6c-0.2,0.2-0.6,0.2-1,0
			c-0.8-0.1-1.3-0.5-1.5-1.2c-0.3-0.7-0.5-1.4-0.8-2.1c-0.4-0.8-0.7-1.5-1-2.4c-0.3-0.8-0.7-1.6-1.2-2.3c-0.6-0.9-1.3-1.7-2.1-2.5
			c-0.8-0.8-1.5-1.6-2.3-2.4c-0.9-1.1-1.8-2.2-2.5-3.2c-0.7-1-1.4-2.1-2.1-3.5c-0.6-1.2-1.4-2.3-2.2-3.2c-0.9-0.9-1.6-2-2.1-3.3
			c-0.4-0.8-0.9-1.6-1.2-2.4c-0.4-0.9-0.6-1.8-0.6-2.7c0-0.8,0.2-1.5,0.7-2.1c0.5-0.7,1.1-1.3,1.7-1.8c0.7-0.5,1.4-1,2.2-1.4
			c0.8-0.4,1.5-0.7,2.1-0.9c1.2-0.4,2.4-0.8,3.5-1c1.2-0.2,2.4-0.5,3.6-0.8c0.4-0.1,0.9-0.2,1.4-0.5c0.5-0.3,1-0.6,1.6-0.8
			c0.6-0.3,1.1-0.4,1.7-0.6c0.5-0.1,1.1-0.1,1.6,0.1c0.7,0.3,1.2,1,1.5,2.1c0.3,1.1,0.6,2,0.9,2.6c0.2,0.4,0.3,0.8,0.5,1.2
			c0.1,0.4,0.3,0.9,0.5,1.2c0.6,1.3,1.4,2.3,2.6,3c1.1,0.8,2.4,0.9,3.9,0.6c1.3-0.3,2.2-0.9,2.9-1.8c0.7-0.9,1.1-1.9,1.2-3
			s0-2.2-0.2-3.4s-0.7-2.1-1.4-3c-0.3-0.3-0.6-0.6-1-1c-0.4-0.3-0.7-0.7-1-1c-0.4-0.4-0.6-0.7-0.8-0.9c-0.2-0.2-0.3-0.4-0.5-0.5
			c-0.2-0.1-0.4-0.2-0.7-0.2c-0.3-0.1-0.6-0.1-1-0.2c-1.1-0.3-2.3-0.5-3.5-0.7c-1.2-0.2-2.4-0.5-3.6-0.8c-0.5-0.1-0.8-0.3-1-0.4
			c-0.2-0.1-0.3-0.3-0.4-0.4s-0.2-0.3-0.3-0.4c-0.1-0.2-0.4-0.4-0.8-0.7c-0.4-0.3-0.7-0.4-0.9-0.6c-0.2-0.1-0.4-0.2-0.6-0.2
			c-0.2,0-0.4,0-0.6,0c-0.2,0-0.5,0-0.9,0c-0.9-0.1-1.9-0.3-3.2-0.4c-1.2-0.2-2.3-0.5-3.2-1c-0.5-0.4-0.8-0.8-0.9-1.1
			c-0.1-0.4-0.2-0.8-0.2-1.2c0-0.4,0-0.9,0-1.4c0-0.5-0.1-1-0.4-1.6c-0.7-1.6-1.3-3-1.7-4.1C186.6,22.4,186.3,20.9,186.3,19.1z"/>
		<path fill="#3A3835" d="M239.9,43.3c-0.1-1.1-0.1-2.1,0.1-3.2c0.2-1,0.4-2.1,0.4-3.3c0.1-1.1,0-2.1-0.2-3.2
			c-0.2-1-0.4-2.1-0.5-3.2c-0.1-0.8-0.1-1.6-0.2-2.4c-0.1-0.8-0.1-1.5,0-2.3c0.1-0.7,0.2-1.3,0.3-1.9c0.2-0.6,0.3-1.2,0.4-1.9
			c0.2-1.3,0.2-2.6,0.1-4c-0.1-1.4-0.2-2.8-0.1-4.1c0-1.4,0.2-2.6,0.6-3.9c0.4-1.2,1.2-2.3,2.4-3.3c0.8-0.6,1.6-1.1,2.6-1.4
			c1-0.3,2-0.6,3.1-0.7s2.1-0.3,3.2-0.3c1.1,0,2.1-0.1,3-0.1c1.4-0.1,2.7,0.1,3.8,0.6c1.2,0.5,2.1,1.4,2.8,2.7
			c0.4,0.7,0.6,1.4,0.6,2c0,0.7,0,1.3-0.1,1.9s-0.2,1.3-0.4,1.9c-0.2,0.6-0.2,1.3-0.2,2.1c0,0.7,0,1.5,0,2.4c0,0.9,0.1,1.7,0.2,2.5
			c0.1,0.7,0,1.6,0,2.8c-0.1,1.2-0.2,2.4-0.2,3.7c-0.1,1.3,0,2.5,0.2,3.5c0.2,1,0.7,1.7,1.4,2c0.6,0.3,1.3,0.3,2,0.1
			c0.7-0.3,1.4-0.6,2.2-1.1c0.7-0.5,1.4-1,1.9-1.6c0.6-0.6,1-1.2,1.4-1.7c0.5-0.7,0.7-1.6,0.7-2.8c0-1.2,0-2.2,0-3.1
			c0-2,0.1-4.1,0.3-6.2c0.2-2.1,0.3-4.2,0.3-6.3c0-0.6,0.1-1.3,0.2-2.1c0.1-0.8,0.4-1.6,0.7-2.4c0.3-0.8,0.8-1.4,1.3-2
			c0.5-0.6,1.1-1,1.9-1.1c0.6-0.1,1.2-0.1,1.8,0.1c0.6,0.2,1.2,0.3,1.8,0.3c0.7,0,1.3,0,1.8-0.1c0.5-0.1,1.1-0.2,1.7-0.4
			c1.3-0.4,2.9-0.7,4.6-0.7c0.8,0,1.6,0.2,2.5,0.7c1.6,0.9,2.8,2.1,3.5,3.7c0.7,1.6,1.2,3.3,1.4,5c0.3,2,0.4,4.1,0.6,6.2
			c0.1,2.1,0.2,4.2,0.2,6.2c0,1.6-0.2,3.2-0.5,4.6c-0.3,1.4-0.5,3-0.7,4.6c-0.1,1.5-0.1,2.9,0,4.2c0.1,1.4,0.1,2.8,0.1,4.2
			c0,3.7,0.2,7.3,0.6,11c0.4,3.7,0.8,7.4,1.3,11c0.1,1.1,0.3,2.1,0.4,3.2c0.2,1,0.2,2.1,0.2,3.3c0,1,0,2.2-0.1,3.5
			c-0.1,1.3-0.3,2.4-0.6,3.3c-0.4,1.1-1,1.9-1.8,2.6c-0.9,0.7-1.5,1.5-2,2.4c-0.5,0.9-0.6,2.1-0.4,3.5c0.3,1.4,0.4,2.6,0.5,3.7
			c0.1,0.7,0.1,1.4,0.1,2c0,0.7,0,1.3-0.1,2c-0.1,0.7-0.2,1.3-0.5,1.9c-0.3,0.6-0.4,1.1-0.6,1.7c-0.2,0.9-0.4,1.7-0.6,2.6
			c-0.2,0.8-0.3,1.7-0.2,2.6c0.1,0.7,0.2,1.4,0.3,2c0.1,0.6,0.2,1.3,0.2,2c0,0.5,0,1.1,0.1,1.7c0.1,0.6,0.2,1.2,0.3,1.8
			c0.1,0.6,0.1,1.2,0,1.8c-0.1,0.6-0.2,1.1-0.5,1.6c-0.3,0.4-0.7,0.7-1.2,0.9c-0.6,0.3-1.1,0.3-1.6,0.2c-0.6-0.2-1-0.5-1-1
			c0-0.5,0-1.1,0-1.8c0-1.3-0.1-2.6-0.3-3.9c-0.2-1.3-0.3-2.6-0.3-3.9c0-0.9,0-1.7,0.1-2.5c0.1-0.8,0.1-1.6,0-2.4
			c-0.1-0.9-0.2-1.9-0.5-2.8c-0.3-0.9-0.5-1.9-0.6-2.9c-0.1-1.1-0.2-2.2-0.2-3.4c0-1.2-0.4-2.2-1.1-3c-0.3-0.4-0.6-0.8-1-1.1
			c-0.3-0.4-0.6-0.8-0.9-1.2c-0.4-0.8-0.6-1.6-0.5-2.6c0.1-0.9-0.1-1.8-0.7-2.6c-0.5-0.6-1.2-0.9-2-1.1c-0.8-0.2-1.6-0.3-2.3-0.5
			c-1-0.1-1.9-0.4-2.7-0.8c-0.8-0.4-1.4-1.1-1.9-2c-0.8-1.6-1.1-3.2-0.8-5c0.3-1.7,0.5-3.4,0.7-5.1c0.1-1.5,0.1-3.1,0-4.6
			c-0.1-1.6-0.4-3.1-0.8-4.5c-0.1-0.5-0.2-0.9-0.2-1.1c0-0.2-0.4-0.4-1-0.5c-0.7-0.2-1.1-0.2-1.3,0.1c-0.2,0.3-0.4,0.5-0.7,0.9
			c-0.8,0.6-1.4,0.9-1.8,0.9c-0.5,0.1-1.2,0-2.3-0.1c-1.1-0.1-1.8,0-2.2,0.4c-0.4,0.4-0.7,0.9-0.8,1.6c-0.1,0.7-0.1,1.4,0,2.2
			c0.1,0.8,0.1,1.5,0,2.2c-0.2,2.1-0.4,4.1-0.7,6.2c-0.3,2-0.3,4.1-0.2,6.2c0.1,0.9,0.1,1.9,0.2,2.8c0.1,0.9,0,1.9-0.1,3
			c-0.3,1.6-0.7,3-1.2,4.4c-0.5,1.3-0.8,2.8-0.9,4.4c-0.1,1.8-0.2,3.5-0.3,5.3c-0.1,1.7,0,3.5,0.1,5.3c0.1,1.3,0,2.4-0.2,3.3
			c-0.2,0.9-1,1.4-2.4,1.5c-0.8,0-1.3-0.2-1.7-0.5c-0.4-0.3-0.6-0.7-0.8-1.2c-0.1-0.5-0.2-1.1-0.2-1.7c0-0.6,0.1-1.3,0.2-1.9
			c0.1-1.1,0.3-2.3,0.5-3.5c0.2-1.2,0.1-2.4-0.2-3.6c-0.1-0.6-0.4-1.3-0.7-2.2c-0.3-0.9-0.8-1.8-1.3-2.6c-0.5-0.9-1.1-1.6-1.7-2.3
			c-0.6-0.7-1.2-1.1-1.8-1.2c-0.9-0.2-1.7-0.3-2.6-0.4c-0.8-0.1-1.6-0.2-2.3-0.4c-0.7-0.2-1.3-0.6-1.9-1c-0.6-0.5-1-1.2-1.4-2.2
			c-0.5-1.5-0.8-3-0.8-4.6c0-1.6,0-3.2,0-4.8c0-1.3,0.1-2.6,0.3-4s0.3-2.6,0.3-3.9c0-1.5-0.2-2.9-0.5-4.3c-0.3-1.4-0.3-2.9,0-4.3
			c0.3-1.6,0.5-3.1,0.6-4.6S240.1,44.9,239.9,43.3z"/>
		<path fill="#3A3835" d="M300.2,34.6c-0.4-2-0.5-4-0.3-6.2c0.2-2.1,0.2-4.2,0.2-6.2c0-1.5,0.1-2.9,0.2-4.3c0.1-1.4,0.2-2.9,0.2-4.3
			c0-1.2,0-2.4,0-3.7s0.3-2.5,0.8-3.5c0.4-0.8,0.8-1.2,1.2-1.4c0.4-0.2,0.9-0.2,1.4,0c0.5,0.2,1,0.4,1.5,0.7c0.5,0.3,1,0.5,1.6,0.7
			c2,0.6,3.8,0.9,5.7,0.7c1.5-0.1,2.9-0.4,4.1-0.9c0.6-0.3,1.1-0.5,1.6-0.8c0.5-0.3,1.1-0.5,1.8-0.5c0.9-0.1,1.4,0.1,1.6,0.5
			c0.2,0.4,0.5,0.8,1,1.3c0.4,0.4,0.8,0.7,1.1,1c0.4,0.3,0.7,0.6,1,0.9c0.3,0.3,0.5,0.7,0.7,1.1c0.2,0.4,0.2,1,0.1,1.7
			c-0.1,0.6-0.2,1.1-0.5,1.7c-0.3,0.6-0.4,1.2-0.4,1.8c0,0.7,0.1,1.3,0.3,1.8c0.2,0.5,0.4,1,0.6,1.6c0.4,1.3,0.7,2.6,0.9,4
			c0.1,1.4,0.2,2.8,0.2,4.1c0,1.3-0.2,2.5-0.5,3.6c-0.3,1.1-0.5,2.3-0.6,3.6c-0.1,1.3,0,2.5,0.3,3.6c0.3,1.1,0.7,2.2,1.1,3.4
			c0.4,1.1,0.7,2.3,0.8,3.5c0.1,1.2,0.1,2.4,0,3.6c-0.1,2.5-0.3,5-0.5,7.5c-0.2,2.5,0,4.9,0.7,7.3c0.5,1.6,1,3.1,1.6,4.5
			c0.5,1.5,0.6,3,0.2,4.7c-0.3,1.6-0.9,2.5-1.7,2.7c-0.8,0.3-1.7,0.3-2.6,0c-0.9-0.2-1.9-0.5-2.9-0.8c-1-0.3-1.9-0.2-2.6,0.1
			c-0.9,0.4-1.5,1.1-1.9,1.9s-0.7,1.7-0.9,2.7c-0.2,0.9-0.3,1.9-0.4,2.9c-0.1,1-0.2,1.9-0.4,2.7c-0.4,2-0.4,4.1-0.1,6.1
			c0.3,2.1,0.5,4.1,0.5,6.1c0,0.3,0,0.8,0,1.7s0,1.8-0.1,2.7c-0.1,0.9-0.3,1.6-0.6,2.2c-0.3,0.6-0.8,0.7-1.4,0.4
			c-0.5-0.3-0.8-0.9-0.8-1.6c0-0.8-0.1-1.4-0.2-1.9c-0.1-0.5-0.3-1-0.6-1.4c-0.3-0.4-0.4-0.9-0.6-1.4c-0.1-0.6-0.2-1.2-0.1-1.8
			c0-0.6,0-1.2,0-1.8c0-1.3-0.1-2.4-0.3-3.6c-0.2-1.1-0.5-2.3-0.7-3.5c-0.1-0.7-0.3-1.3-0.5-1.9c-0.2-0.6-0.3-1.2-0.3-1.9
			c0-0.7,0-1.3,0.1-1.9c0.1-0.6,0.1-1.2,0-1.8c-0.1-0.4-0.1-0.8,0-1.2c0-0.4,0-0.9,0-1.3c0-0.4-0.1-0.9-0.2-1.3
			c-0.1-0.4-0.3-0.8-0.7-1.1c-0.2-0.2-0.5-0.4-0.9-0.5c-0.4-0.2-0.9-0.3-1.4-0.4c-0.5-0.1-1-0.2-1.5-0.3c-0.5-0.1-0.9-0.1-1.1-0.1
			c-0.3,0-0.7,0.1-1.1,0.4c-0.4,0.3-0.7,0.3-1,0.2c-0.6-0.3-1.1-0.9-1.4-1.9c-0.3-1-0.5-1.8-0.5-2.4v-0.2c-0.1-0.9-0.2-1.8-0.1-2.7
			c0.1-0.9,0.1-1.8,0.2-2.7c0.1-0.9,0.2-1.8,0.2-2.7c0-0.9,0-1.8-0.1-2.7c-0.3-1.3-0.5-2.6-0.8-3.9c-0.3-1.3-0.4-2.6-0.4-3.9
			c0-2.6,0.2-5.2,0.5-7.7C300.8,39.8,300.7,37.2,300.2,34.6z"/>
		<path fill="#3A3835" d="M330.7,19.6c-0.1-0.6-0.3-1.1-0.6-1.6s-0.6-1-0.8-1.5c-0.2-0.5-0.3-1.1-0.4-1.8c-0.1-0.7-0.2-1.2-0.3-1.8
			c-0.3-1.3-0.4-2.7-0.4-4.1c0-1.4,0-2.8,0-4.3c0-2,0.4-3.2,1.3-3.7c0.9-0.5,2.2-0.6,4-0.3c0.7,0.1,1.4,0.3,2,0.6
			c0.6,0.3,1.3,0.5,1.9,0.8c0.6,0.3,1.3,0.5,1.9,0.7c0.6,0.2,1.3,0.2,2.1,0c0.6-0.1,1.2-0.4,1.6-0.8c0.4-0.4,1-0.6,1.7-0.8
			c0.9-0.2,1.8-0.2,2.8,0c1,0.2,1.9,0.3,2.8,0.5c1.6,0.1,3.1,0.3,4.4,0.6c1.4,0.3,2.9,0.1,4.4-0.4c1.2-0.4,2.4-0.5,3.7-0.4
			c1.3,0.1,2.5,0.3,3.7,0.6c1.2,0.3,2.5,0.6,3.7,0.9s2.5,0.5,3.8,0.5c1.4,0,2.8-0.2,4-0.6c1.2-0.4,2.6-0.5,4-0.4
			c1.4,0.1,2.7,0.1,3.9,0c1.2-0.1,2.5-0.3,3.9-0.6c1.3-0.3,2.6-0.5,3.8-0.5c1.2,0,2.3,0.4,3.4,1.3c1.2,0.9,2,1.9,2.4,2.8
			c0.4,0.9,0.6,2.1,0.5,3.6c-0.1,1.3-0.1,2.7,0,4.2c0,1.5,0,2.8-0.2,4.2c-0.4,2.6-0.8,5.1-1.2,7.5c-0.4,2.4-0.5,4.9-0.3,7.6
			c0.1,1.2,0.3,2.5,0.5,3.8c0.2,1.4,0.1,2.6-0.2,3.8c-0.2,0.6-0.6,1.1-1.1,1.7c-0.6,0.5-1.2,1-1.8,1.3c-0.7,0.3-1.2,0.4-1.8,0.4
			c-0.5-0.1-0.8-0.4-0.8-1v-0.1c0-0.9-0.1-1.7-0.4-2.3c-0.3-0.7-0.5-1.4-0.6-2.2c-0.1-0.8-0.3-1.5-0.7-2.1c-0.3-0.6-0.5-1.3-0.7-2.2
			c-0.2-1.6-0.6-2.8-1.1-3.7c-0.6-0.9-1.2-1.5-1.9-1.8c-0.7-0.3-1.5-0.4-2.4-0.1c-0.9,0.2-1.7,0.6-2.5,1.3c-0.6,0.5-1.2,1.1-1.8,1.7
			c-0.5,0.6-1,1.4-1.4,2.3c-1.1,2.5-1.6,4.9-1.6,7.4c0,2.5,0,5-0.1,7.5c0,1.6-0.1,3.1-0.2,4.6c-0.2,1.5-0.3,3-0.3,4.5
			c0,1.5,0,3,0.1,4.5c0.1,1.5,0.4,3,0.8,4.5c0.4,1.5,0.8,3,1.1,4.8c0.3,1.7,0.1,3.4-0.7,4.9c-0.5,0.9-1.2,1.7-2.1,2.3
			c-0.9,0.6-1.6,1.3-2.1,2.1c-0.3,0.6-0.5,1.2-0.6,1.8c-0.1,0.6-0.1,1.3,0,1.9c0.1,0.7,0.1,1.3,0.2,2c0.1,0.7,0.1,1.3,0,1.9
			c-0.1,0.6-0.2,1.4-0.4,2.2c-0.2,0.8-0.5,1.4-1,1.9c-0.4,0.3-0.9,0.4-1.2,0.4c-0.4-0.1-0.7-0.3-1-0.6c-0.3-0.3-0.5-0.7-0.8-1.2
			c-0.2-0.5-0.4-0.9-0.4-1.3c-0.1-0.6-0.2-1.2-0.1-1.8c0.1-0.6,0.2-1.1,0.3-1.7c0.1-0.5,0.3-1.1,0.4-1.7c0.1-0.6,0.2-1.2,0.2-1.8
			c0-0.5-0.1-0.9-0.3-1.2c-0.2-0.3-0.4-0.6-0.6-1.1c-0.3-0.6-0.5-1.2-0.6-1.9c-0.1-0.7-0.3-1.3-0.9-1.7c-0.6-0.6-1.1-0.6-1.3,0
			c-0.3,0.6-0.4,1.5-0.5,2.6s-0.1,2.2-0.1,3.3s-0.1,1.8-0.2,2.1c-0.4,1.1-0.8,2.2-1.3,3.5c-0.5,1.3-0.6,2.5-0.5,3.7
			c0.1,1.5,0.3,2.8,0.7,4c0.3,1.2,0.4,2.6,0.2,4.3c-0.1,0.8-0.3,1.5-0.4,2c-0.2,0.5-0.5,1.2-0.9,1.9c-0.4,0.8-0.7,1.5-0.7,2.2
			c0,0.6,0.1,1.4,0.2,2.4c0.1,0.5,0.1,1.2,0.1,2.1c0,0.9-0.1,1.7-0.3,2.4c-0.2,0.7-0.6,1.2-1.1,1.5c-0.5,0.3-1.2,0-2-0.9
			c-0.4-0.4-0.7-1-0.9-1.7c-0.1-0.7-0.2-1.4-0.2-2.2c0-0.8,0-1.6,0-2.4c0-0.8,0-1.5-0.2-2c-0.3-0.8-0.4-1.5-0.5-2.1
			c-0.1-0.6-0.1-1.4,0-2.3c0.1-0.9,0.3-1.8,0.4-2.7c0.2-0.9,0.3-1.8,0.4-2.6c0.1-0.7,0.3-1.5,0.4-2.4c0.1-0.9,0-1.7-0.4-2.5
			c-0.5-1.1-1.1-2.1-1.7-3.1c-0.6-1-1.3-2-2.2-2.8c-0.8-0.7-1.6-1.3-2.5-1.8c-0.9-0.5-1.6-1.2-2.3-2c-0.6-0.8-1-1.7-1.2-2.7
			c-0.3-1-0.4-2-0.5-3c-0.1-1,0-2.1,0-3.1s0.2-2,0.2-3c0.1-1.5,0.3-3,0.5-4.5c0.2-1.5,0.3-3,0.3-4.7c0-1.6-0.1-3.1-0.3-4.7
			c-0.2-1.5-0.2-3.1,0-4.7c0.3-1.5,0.5-3.1,0.9-4.6c0.3-1.6,0.3-3.1-0.2-4.6c-0.2-0.8-0.4-1.6-0.5-2.4s-0.2-1.6-0.2-2.3
			c0-0.6,0.1-1.2,0.3-1.8c0.2-0.7,0.3-1.4,0.5-2.1c0.1-0.7,0.2-1.4,0.1-2c-0.1-0.6-0.3-1.2-0.9-1.6c-0.7-0.6-1.3-0.8-1.8-0.7
			c-0.5,0.1-0.9,0.4-1.3,0.9c-0.4,0.5-0.7,1.1-0.9,1.8c-0.2,0.7-0.3,1.3-0.3,1.8c-0.1,0.6,0,1.3,0.1,1.9c0.1,0.6,0.1,1.3,0,1.9
			c-0.1,0.5-0.3,1-0.6,1.6c-0.3,0.6-0.5,1.1-0.8,1.6c-0.3,0.6-0.6,1.1-0.9,1.6c-0.3,0.5-0.7,1-1,1.5c-0.4,0.7-0.7,1.3-0.7,1.8
			c0,0.5-0.1,1.1-0.2,1.9c-0.2,0.8-0.5,1.5-1,1.9c-0.5,0.4-1.1,0.7-1.7,0.7c-0.6,0-1.2-0.1-1.8-0.5c-0.5-0.4-0.9-0.9-1.2-1.7
			c-0.2-0.6-0.3-1.2-0.3-1.8c0-0.6-0.1-1.3-0.2-1.9c-0.1-0.7-0.3-1.3-0.6-1.8c-0.3-0.5-0.4-1.2-0.4-1.9c0-1.5-0.3-2.7-0.8-3.8
			c-0.1-0.3-0.3-0.5-0.5-0.8c-0.2-0.3-0.3-0.5-0.5-0.9s-0.2-0.6-0.1-0.9c0.1-0.3,0-0.6-0.1-0.9c-0.2-0.5-0.5-0.9-1-1.2
			c-0.5-0.3-0.9-0.7-1.2-1.2c-0.6-1-0.7-2.2-0.3-3.6c0.1-0.6,0.3-1.1,0.6-1.5c0.3-0.4,0.5-0.9,0.6-1.4c0.1-0.5,0.2-1.1,0.3-1.8
			C330.7,20.8,330.8,20.1,330.7,19.6z"/>
	</g>
</g>
</svg>
