<?xml version="1.0" encoding="utf-8"?>
<!-- Generator: Adobe Illustrator 19.2.1, SVG Export Plug-In . SVG Version: 6.00 Build 0)  -->
<!DOCTYPE svg PUBLIC "-//W3C//DTD SVG 1.1//EN" "http://www.w3.org/Graphics/SVG/1.1/DTD/svg11.dtd">
<svg version="1.1" id="Layer_1" xmlns="http://www.w3.org/2000/svg" xmlns:xlink="http://www.w3.org/1999/xlink" x="0px" y="0px"
	 viewBox="0 0 400 114.6" enable-background="new 0 0 400 114.6" xml:space="preserve">
<g>
	<g>
		<path fill="#3A3835" d="M0,15h18.2v26.8h20.3V15h18.3v67.4H38.5V57.8H18.2v24.6H0V15z"/>
		<path fill="#3A3835" d="M71.7,15H90v67.4H71.7V15z"/>
		<path fill="#3A3835" d="M104.7,15h26.2c16.9,0,24.5,10.1,24.5,23.9c0,15.3-10.1,22.9-25.6,22.9h-7.6v20.6h-17.5V15z M126.9,46.2
			c5.8,0,9.8-2.7,9.8-7.7c0-4.2-3.2-7.7-9.8-7.7h-4.7v15.4H126.9z"/>
		<path fill="#3A3835" d="M187.1,72.5l10.2-12.5c5.3,5.4,11.2,7.5,15.4,7.5c4.2,0,5.8-2.3,5.8-4.4c0-2.7-1.3-4.1-8.5-6.5
			c-10.2-3.5-20.5-8.4-20.5-22.2c0-11.5,9.6-20.1,22.5-20.4c9.3-0.2,17.6,3.4,23.8,9l-10,12.8c-5.9-4.6-9.5-6.1-12.8-6.1
			c-3.2,0-4.7,1.6-4.7,4c0,2.3,1.4,4.1,8.3,6.7c12,4.6,21,7.5,21,20.5c0,16.9-14.1,22.3-25.4,22.3C203.3,83.3,194.3,79.9,187.1,72.5
			z"/>
		<path fill="#3A3835" d="M248.6,15h18.2v26.8h20.3V15h18.3v67.4h-18.3V57.8h-20.3v24.6h-18.2V15z"/>
		<path fill="#3A3835" d="M320.3,15h18.3v67.4h-18.3V15z"/>
		<path fill="#3A3835" d="M365,31h-17.1V15H400v16h-17.1v51.3H365V31z"/>
	</g>
</g>
</svg>
