<?xml version="1.0" encoding="utf-8"?>
<!-- Generator: Adobe Illustrator 19.2.1, SVG Export Plug-In . SVG Version: 6.00 Build 0)  -->
<!DOCTYPE svg PUBLIC "-//W3C//DTD SVG 1.1//EN" "http://www.w3.org/Graphics/SVG/1.1/DTD/svg11.dtd">
<svg version="1.1" id="Layer_1" xmlns="http://www.w3.org/2000/svg" xmlns:xlink="http://www.w3.org/1999/xlink" x="0px" y="0px"
	 viewBox="0 0 400 114.6" enable-background="new 0 0 400 114.6" xml:space="preserve">
<g>
	<g>
		<path fill="#3A3835" d="M23.9,88.6H9.8L0,78.8l1-1h12.3l-0.1-29.4h26.3v10.8H23.9V88.6z M14.1,8.3l9.8,9.8v19H13.1V9.2L14.1,8.3z
			 M48.2,88.6l-9.8-9.8l1-1h12.2V9.2l1-1l9.8,9.8v70.6H48.2z"/>
		<path fill="#3A3835" d="M77.5,88.6l-9.8-9.8l1-1h12.2V9.2l1-1l9.8,9.8v70.6H77.5z"/>
		<path fill="#3A3835" d="M153.6,23c2.2,2.2,2.9,5.5,2.9,9v17.8c0,8.2-5.7,13.9-13.9,13.9h-22v24.9h-14.1l-9.8-9.8l1-1h12.2V53h22.9
			c8.2,0,12.9-4.7,12.9-12.9V22.2c0-5-1.2-7.9-2.1-9.1L153.6,23z M130.3,20.6c2.2,0,3.3,1.2,3.3,3.3v7.5h-12.9v10.2h-10.8v-21H130.3
			z"/>
		<path fill="#3A3835" d="M205.1,57.7c-4.1-0.9-7.9-2.6-10.6-5.4l-9.3-9.3c2.5,2.5,6.1,3.1,10.1,3.9l19.2,3.9
			c2.2,0.5,3.3,1.2,3.3,3.3v6.3L205.1,57.7z M237,53.3c2.4,2.4,3.8,5.3,3.8,9v12.7c0,8.2-5.7,13.9-13.9,13.9h-22
			c-4.9,0-7.8-1.8-11-4.9l-7.9-7.9c2.5,2,5.5,2.1,9.1,2.1h22c8.2,0,12.9-4.7,12.9-12.9V52.6c0-3.5-0.3-6.3-2.5-8.6L237,53.3z
			 M197.2,66.9c-2.2,0-3.3-1.2-3.3-3.3v-6.3l1-1l10.6,10.6H197.2z M197.6,35.3c-2.2-0.5-3.3-1.2-3.3-3.3v-8.4c0-2.2,1.2-3.3,3.3-3.3
			h16.1c2.2,0,3.6,1.2,3.3,3.3V29h11.8v-7.3c0-5.3-1.5-8.2-2.1-9.1l9.9,9.9c2.2,2.2,2.9,5.5,2.9,9v8.2h-13.7l-8.8-8.8h-8.6
			c-2.3,0-3.3,1.2-3.3,3.3v2.5L197.6,35.3z"/>
		<path fill="#3A3835" d="M268.9,88.6h-14.1l-9.8-9.8l1-1h12.3l-0.1-29.4h26.3v10.8h-15.5V88.6z M259.1,8.3l9.8,9.8v19h-10.8V9.2
			L259.1,8.3z M293.2,88.6l-9.8-9.8l1-1h12.2V9.2l1-1l9.8,9.8v70.6H293.2z"/>
		<path fill="#3A3835" d="M322.5,88.6l-9.8-9.8l1-1h12.2V9.2l1-1l9.8,9.8v70.6H322.5z"/>
		<path fill="#3A3835" d="M339.2,21.4l1-1h18.4v10.8H349L339.2,21.4z M381.6,31.2v57.4h-14.1l-9.8-9.8l1-1h12.2V20.4h18.4V9.2l1-1
			l9.8,9.8v13.1H381.6z"/>
	</g>
</g>
</svg>
