<?xml version="1.0" encoding="utf-8"?>
<!-- Generator: Adobe Illustrator 19.2.1, SVG Export Plug-In . SVG Version: 6.00 Build 0)  -->
<!DOCTYPE svg PUBLIC "-//W3C//DTD SVG 1.1//EN" "http://www.w3.org/Graphics/SVG/1.1/DTD/svg11.dtd">
<svg version="1.1" id="Layer_1" xmlns="http://www.w3.org/2000/svg" xmlns:xlink="http://www.w3.org/1999/xlink" x="0px" y="0px"
	 viewBox="0 0 400 114.6" enable-background="new 0 0 400 114.6" xml:space="preserve">
<g>
	<g>
		<path fill="#3A3835" d="M32.5,66.1V63c0-1.1-0.9-2-2-2c-1.1,0-2,0.9-2,2c0,1.2,0,2.2,0,3.1c0,8.1-6.3,14.3-14.3,14.3
			C6.5,80.3,0,74.1,0,66.1V30.7c0-8,6.5-14.2,14.3-14.2c8,0,14.3,6.2,14.3,14.2c0,1,0,2.2,0,3.2c0,1,0.9,1.9,2,1.9
			c1.1,0,2-0.9,2-1.9v-3.2c0-7.8,6.5-14.2,14.5-14.2c7.8,0,14.3,6.4,14.3,14.2v35.4c0,7.9-6.5,14.3-14.3,14.3
			C39,80.3,32.5,74,32.5,66.1z"/>
		<path fill="#3A3835" d="M67,65.8v-35c0-7.8,6.3-14.1,14.2-14.1c8.2,0,14.5,6.3,14.5,14.1v35c0,7.8-6.3,14.4-14.5,14.4
			C73.3,80.2,67,73.6,67,65.8z"/>
		<path fill="#3A3835" d="M101.3,66.2V31.1c0-8,6.6-14.5,14.9-14.5h17.7c14.3,0,25.5,11.4,25.5,25.6c0,14.3-11.8,25.9-26.2,25.5
			l-1.6-8.8c-0.3-0.7-0.9-0.5-0.9,0.2v7.3c0,7.9-6.6,14.6-14.5,14.6C107.8,80.9,101.3,74.4,101.3,66.2z M130.6,39v6.2
			c0.4,0.3,0.9,0.4,1.3,0.4c1.9,0,3.5-1.6,3.5-3.5c0-1.9-1.6-3.3-3.5-3.3C131.5,38.8,131.1,38.8,130.6,39z"/>
		<path fill="#3A3835" d="M234.9,41.4c-3-1.7-6.5-2.6-10.1-2.9c-0.7,0-1,1-0.3,1.2c24,5.5,21.9,40.7-6.6,40.7c-7.3,0-12.2,0-19.7,0
			c-7.6,0-14.3-8-14.3-14.4c0-4.8,1.7-8.4,5.7-11.3c3.5,2.3,8.2,3.5,12.4,3.5c0.7,0,0.9-0.9,0.2-1.2c-2.5-0.2-5.1-1.2-7.4-2.3
			c-17.6-9.2-13.6-38.5,12.4-38.2c7.3,0,12.2,0,19.5,0c8,0,14.5,6.3,14.5,14.2C241.2,35.3,239.1,39.2,234.9,41.4z"/>
		<path fill="#3A3835" d="M278.2,66.1V63c0-1.1-0.9-2-2-2s-2,0.9-2,2c0,1.2,0,2.2,0,3.1c0,8.1-6.3,14.3-14.3,14.3
			c-7.8,0-14.3-6.2-14.3-14.3V30.7c0-8,6.5-14.2,14.3-14.2c8,0,14.3,6.2,14.3,14.2c0,1,0,2.2,0,3.2c0,1,0.9,1.9,2,1.9s2-0.9,2-1.9
			v-3.2c0-7.8,6.5-14.2,14.5-14.2c7.8,0,14.3,6.4,14.3,14.2v35.4c0,7.9-6.5,14.3-14.3,14.3C284.7,80.3,278.2,74,278.2,66.1z"/>
		<path fill="#3A3835" d="M312.7,65.8v-35c0-7.8,6.3-14.1,14.2-14.1c8.2,0,14.5,6.3,14.5,14.1v35c0,7.8-6.3,14.4-14.5,14.4
			C319,80.2,312.7,73.6,312.7,65.8z"/>
		<path fill="#3A3835" d="M385.5,16.5c8,0,14.5,6.6,14.5,14.4c0,7.6-6.2,14.2-14.2,14.2l0.1,20.9c0,8-6.6,14.5-14.5,14.5
			c-7.7,0-14.2-6.6-14.2-14.5V45.1c-8,0-14.2-6.6-14.2-14.2c0-7.9,6.2-14.4,14.2-14.4H385.5z"/>
	</g>
</g>
</svg>
